<svg width="21" height="21" viewBox="0 0 21 21" fill="none" xmlns="http://www.w3.org/2000/svg">
<path d="M6.83057 13.75H4.83057V16.75H6.83057V13.75ZM11.8306 9.75H9.83057V16.75H11.8306V9.75ZM16.8306 4.75V16.75H14.8306V4.75H16.8306ZM14.8306 3.75C14.5653 3.75 14.311 3.85536 14.1235 4.04289C13.9359 4.23043 13.8306 4.48478 13.8306 4.75V16.75C13.8306 17.0152 13.9359 17.2696 14.1235 17.4571C14.311 17.6446 14.5653 17.75 14.8306 17.75H16.8306C17.0958 17.75 17.3501 17.6446 17.5377 17.4571C17.7252 17.2696 17.8306 17.0152 17.8306 16.75V4.75C17.8306 4.48478 17.7252 4.23043 17.5377 4.04289C17.3501 3.85536 17.0958 3.75 16.8306 3.75H14.8306ZM8.83057 9.75C8.83057 9.48478 8.93592 9.23043 9.12346 9.04289C9.311 8.85536 9.56535 8.75 9.83057 8.75H11.8306C12.0958 8.75 12.3501 8.85536 12.5377 9.04289C12.7252 9.23043 12.8306 9.48478 12.8306 9.75V16.75C12.8306 17.0152 12.7252 17.2696 12.5377 17.4571C12.3501 17.6446 12.0958 17.75 11.8306 17.75H9.83057C9.56535 17.75 9.311 17.6446 9.12346 17.4571C8.93592 17.2696 8.83057 17.0152 8.83057 16.75V9.75ZM3.83057 13.75C3.83057 13.4848 3.93592 13.2304 4.12346 13.0429C4.311 12.8554 4.56535 12.75 4.83057 12.75H6.83057C7.09578 12.75 7.35014 12.8554 7.53767 13.0429C7.72521 13.2304 7.83057 13.4848 7.83057 13.75V16.75C7.83057 17.0152 7.72521 17.2696 7.53767 17.4571C7.35014 17.6446 7.09578 17.75 6.83057 17.75H4.83057C4.56535 17.75 4.311 17.6446 4.12346 17.4571C3.93592 17.2696 3.83057 17.0152 3.83057 16.75V13.75Z" fill="#ABABAB"/>
</svg>
