<svg width="21" height="21" viewBox="0 0 21 21" fill="none" xmlns="http://www.w3.org/2000/svg">
<g clip-path="url(#clip0_16_94)">
<path d="M14.2056 6.5C14.305 6.5 14.4004 6.53951 14.4707 6.60984C14.5411 6.68016 14.5806 6.77554 14.5806 6.875C14.5806 6.97446 14.5411 7.06984 14.4707 7.14016C14.4004 7.21049 14.305 7.25 14.2056 7.25H10.4556C10.3561 7.25 10.2607 7.21049 10.1904 7.14016C10.1201 7.06984 10.0806 6.97446 10.0806 6.875C10.0806 6.77554 10.1201 6.68016 10.1904 6.60984C10.2607 6.53951 10.3561 6.5 10.4556 6.5H14.2056ZM14.2056 8.75C14.305 8.75 14.4004 8.78951 14.4707 8.85984C14.5411 8.93016 14.5806 9.02554 14.5806 9.125C14.5806 9.22446 14.5411 9.31984 14.4707 9.39016C14.4004 9.46049 14.305 9.5 14.2056 9.5H10.4556C10.3561 9.5 10.2607 9.46049 10.1904 9.39016C10.1201 9.31984 10.0806 9.22446 10.0806 9.125C10.0806 9.02554 10.1201 8.93016 10.1904 8.85984C10.2607 8.78951 10.3561 8.75 10.4556 8.75H14.2056ZM14.5806 11.375C14.5806 11.2755 14.5411 11.1802 14.4707 11.1098C14.4004 11.0395 14.305 11 14.2056 11H10.4556C10.3561 11 10.2607 11.0395 10.1904 11.1098C10.1201 11.1802 10.0806 11.2755 10.0806 11.375C10.0806 11.4745 10.1201 11.5698 10.1904 11.6402C10.2607 11.7105 10.3561 11.75 10.4556 11.75H14.2056C14.305 11.75 14.4004 11.7105 14.4707 11.6402C14.5411 11.5698 14.5806 11.4745 14.5806 11.375ZM14.2056 13.25C14.305 13.25 14.4004 13.2895 14.4707 13.3598C14.5411 13.4302 14.5806 13.5255 14.5806 13.625C14.5806 13.7245 14.5411 13.8198 14.4707 13.8902C14.4004 13.9605 14.305 14 14.2056 14H10.4556C10.3561 14 10.2607 13.9605 10.1904 13.8902C10.1201 13.8198 10.0806 13.7245 10.0806 13.625C10.0806 13.5255 10.1201 13.4302 10.1904 13.3598C10.2607 13.2895 10.3561 13.25 10.4556 13.25H14.2056Z" fill="#ABABAB"/>
<path d="M16.8306 5.75C16.8306 5.35218 16.6725 4.97064 16.3912 4.68934C16.1099 4.40804 15.7284 4.25 15.3306 4.25H6.33057C5.93274 4.25 5.55121 4.40804 5.26991 4.68934C4.9886 4.97064 4.83057 5.35218 4.83057 5.75V14.75C4.83057 15.1478 4.9886 15.5294 5.26991 15.8107C5.55121 16.092 5.93274 16.25 6.33057 16.25H15.3306C15.7284 16.25 16.1099 16.092 16.3912 15.8107C16.6725 15.5294 16.8306 15.1478 16.8306 14.75V5.75ZM7.83057 5V15.5H6.33057C6.13165 15.5 5.94089 15.421 5.80024 15.2803C5.65958 15.1397 5.58057 14.9489 5.58057 14.75V5.75C5.58057 5.55109 5.65958 5.36032 5.80024 5.21967C5.94089 5.07902 6.13165 5 6.33057 5H7.83057ZM8.58057 5H15.3306C15.5295 5 15.7202 5.07902 15.8609 5.21967C16.0015 5.36032 16.0806 5.55109 16.0806 5.75V14.75C16.0806 14.9489 16.0015 15.1397 15.8609 15.2803C15.7202 15.421 15.5295 15.5 15.3306 15.5H8.58057V5Z" fill="#ABABAB"/>
</g>
<defs>
<clipPath id="clip0_16_94">
<rect width="12" height="12" fill="white" transform="translate(4.83057 4.25)"/>
</clipPath>
</defs>
</svg>
