<svg width="21" height="21" viewBox="0 0 21 21" fill="none" xmlns="http://www.w3.org/2000/svg">
<g clip-path="url(#clip0_16_63)">
<path fill-rule="evenodd" clip-rule="evenodd" d="M5.93057 13.7C5.97714 13.6379 6.03753 13.5875 6.10696 13.5528C6.17639 13.5181 6.25294 13.5 6.33057 13.5H8.83057C8.96317 13.5 9.09035 13.5527 9.18412 13.6464C9.27789 13.7402 9.33057 13.8674 9.33057 14C9.33057 14.1326 9.27789 14.2598 9.18412 14.3536C9.09035 14.4473 8.96317 14.5 8.83057 14.5H6.58057L4.33057 17.5H17.3306L15.0806 14.5H12.8306C12.698 14.5 12.5708 14.4473 12.477 14.3536C12.3832 14.2598 12.3306 14.1326 12.3306 14C12.3306 13.8674 12.3832 13.7402 12.477 13.6464C12.5708 13.5527 12.698 13.5 12.8306 13.5H15.3306C15.4082 13.5 15.4847 13.5181 15.5542 13.5528C15.6236 13.5875 15.684 13.6379 15.7306 13.7L18.7306 17.7C18.7863 17.7743 18.8202 17.8626 18.8285 17.9551C18.8369 18.0476 18.8193 18.1406 18.7778 18.2236C18.7363 18.3067 18.6724 18.3765 18.5934 18.4253C18.5144 18.4741 18.4234 18.5 18.3306 18.5H3.33057C3.23771 18.5 3.14669 18.4741 3.0677 18.4253C2.98871 18.3765 2.92488 18.3067 2.88335 18.2236C2.84183 18.1406 2.82425 18.0476 2.83259 17.9551C2.84093 17.8626 2.87485 17.7743 2.93057 17.7L5.93057 13.7Z" fill="#ABABAB"/>
<path fill-rule="evenodd" clip-rule="evenodd" d="M10.8306 3.5C10.4366 3.5 10.0465 3.5776 9.68252 3.72836C9.31854 3.87913 8.98782 4.10011 8.70925 4.37868C8.43067 4.65726 8.20969 4.98798 8.05893 5.35195C7.90816 5.71593 7.83057 6.10604 7.83057 6.5C7.83057 6.89397 7.90816 7.28408 8.05893 7.64805C8.20969 8.01203 8.43067 8.34275 8.70925 8.62132C8.98782 8.8999 9.31854 9.12088 9.68252 9.27164C10.0465 9.42241 10.4366 9.5 10.8306 9.5C11.6262 9.5 12.3893 9.18393 12.9519 8.62132C13.5145 8.05871 13.8306 7.29565 13.8306 6.5C13.8306 5.70435 13.5145 4.94129 12.9519 4.37868C12.3893 3.81607 11.6262 3.5 10.8306 3.5ZM6.83057 6.5C6.83064 5.73023 7.05282 4.97683 7.47046 4.33019C7.8881 3.68356 8.48345 3.17117 9.18507 2.85451C9.88669 2.53784 10.6648 2.43036 11.426 2.54494C12.1872 2.65952 12.8992 2.99131 13.4765 3.5005C14.0538 4.00968 14.4719 4.67463 14.6807 5.41556C14.8894 6.15648 14.88 6.94191 14.6534 7.67759C14.4269 8.41327 13.9929 9.06796 13.4035 9.5631C12.8141 10.0582 12.0943 10.3728 11.3306 10.469V16C11.3306 16.1326 11.2779 16.2598 11.1841 16.3536C11.0904 16.4473 10.9632 16.5 10.8306 16.5C10.698 16.5 10.5708 16.4473 10.477 16.3536C10.3832 16.2598 10.3306 16.1326 10.3306 16V10.47C9.36353 10.3482 8.47426 9.87744 7.82978 9.14624C7.18531 8.41504 6.82999 7.47368 6.83057 6.499V6.5Z" fill="#ABABAB"/>
</g>
<defs>
<clipPath id="clip0_16_63">
<rect width="16" height="16" fill="white" transform="translate(2.83057 2.5)"/>
</clipPath>
</defs>
</svg>
