<svg width="21" height="21" viewBox="0 0 21 21" fill="none" xmlns="http://www.w3.org/2000/svg">
<g clip-path="url(#clip0_16_70)">
<path d="M10.8306 7.504C10.4043 7.504 9.98223 7.58796 9.5884 7.75109C9.19458 7.91421 8.83675 8.15331 8.53533 8.45473C8.23391 8.75615 7.99481 9.11399 7.83168 9.50781C7.66856 9.90163 7.58459 10.3237 7.58459 10.75C7.58459 11.1763 7.66856 11.5984 7.83168 11.9922C7.99481 12.386 8.23391 12.7438 8.53533 13.0453C8.83675 13.3467 9.19458 13.5858 9.5884 13.7489C9.98223 13.912 10.4043 13.996 10.8306 13.996C11.6915 13.996 12.5171 13.654 13.1259 13.0453C13.7346 12.4365 14.0766 11.6109 14.0766 10.75C14.0766 9.88911 13.7346 9.06347 13.1259 8.45473C12.5171 7.84599 11.6915 7.504 10.8306 7.504ZM8.5846 10.75C8.5846 10.1543 8.82123 9.58304 9.24243 9.16184C9.66364 8.74063 10.2349 8.504 10.8306 8.504C11.4263 8.504 11.9976 8.74063 12.4188 9.16184C12.84 9.58304 13.0766 10.1543 13.0766 10.75C13.0766 11.3457 12.84 11.917 12.4188 12.3382C11.9976 12.7594 11.4263 12.996 10.8306 12.996C10.2349 12.996 9.66364 12.7594 9.24243 12.3382C8.82123 11.917 8.5846 11.3457 8.5846 10.75Z" fill="#ABABAB"/>
<path d="M12.6266 4.093C12.0996 2.303 9.56155 2.303 9.03455 4.093L8.94055 4.412C8.90375 4.53695 8.83945 4.65208 8.75237 4.74896C8.66529 4.84583 8.55763 4.92199 8.4373 4.97185C8.31696 5.02171 8.18699 5.04401 8.05691 5.03712C7.92683 5.03022 7.79995 4.99431 7.68555 4.932L7.39355 4.772C5.75355 3.88 3.96055 5.674 4.85355 7.313L5.01255 7.605C5.07486 7.71939 5.11078 7.84628 5.11767 7.97635C5.12457 8.10643 5.10227 8.2364 5.05241 8.35674C5.00255 8.47708 4.92639 8.58474 4.82951 8.67182C4.73264 8.7589 4.61751 8.8232 4.49255 8.86L4.17355 8.954C2.38355 9.481 2.38355 12.019 4.17355 12.546L4.49255 12.64C4.61751 12.6768 4.73264 12.7411 4.82951 12.8282C4.92639 12.9153 5.00255 13.0229 5.05241 13.1433C5.10227 13.2636 5.12457 13.3936 5.11767 13.5236C5.11078 13.6537 5.07486 13.7806 5.01255 13.895L4.85255 14.187C3.96055 15.827 5.75355 17.621 7.39355 16.727L7.68555 16.568C7.79995 16.5057 7.92683 16.4698 8.05691 16.4629C8.18699 16.456 8.31696 16.4783 8.4373 16.5281C8.55763 16.578 8.66529 16.6542 8.75237 16.751C8.83945 16.8479 8.90375 16.963 8.94055 17.088L9.03455 17.407C9.56155 19.197 12.0996 19.197 12.6266 17.407L12.7206 17.088C12.7574 16.963 12.8217 16.8479 12.9087 16.751C12.9958 16.6542 13.1035 16.578 13.2238 16.5281C13.3442 16.4783 13.4741 16.456 13.6042 16.4629C13.7343 16.4698 13.8612 16.5057 13.9756 16.568L14.2676 16.728C15.9076 17.621 17.7016 15.826 16.8076 14.187L16.6486 13.895C16.5862 13.7806 16.5503 13.6537 16.5434 13.5236C16.5365 13.3936 16.5588 13.2636 16.6087 13.1433C16.6586 13.0229 16.7347 12.9153 16.8316 12.8282C16.9285 12.7411 17.0436 12.6768 17.1686 12.64L17.4876 12.546C19.2776 12.019 19.2776 9.481 17.4876 8.954L17.1686 8.86C17.0436 8.8232 16.9285 8.7589 16.8316 8.67182C16.7347 8.58474 16.6586 8.47708 16.6087 8.35674C16.5588 8.2364 16.5365 8.10643 16.5434 7.97635C16.5503 7.84628 16.5862 7.71939 16.6486 7.605L16.8086 7.313C17.7016 5.673 15.9066 3.88 14.2676 4.773L13.9756 4.932C13.8612 4.99431 13.7343 5.03022 13.6042 5.03712C13.4741 5.04401 13.3442 5.02171 13.2238 4.97185C13.1035 4.92199 12.9958 4.84583 12.9087 4.74896C12.8217 4.65208 12.7574 4.53695 12.7206 4.412L12.6266 4.093ZM9.99355 4.376C10.2396 3.541 11.4216 3.541 11.6676 4.376L11.7616 4.695C11.8406 4.96309 11.9786 5.21009 12.1655 5.4179C12.3524 5.62571 12.5834 5.78906 12.8416 5.89598C13.0999 6.0029 13.3787 6.05067 13.6578 6.03579C13.9369 6.02091 14.2092 5.94376 14.4546 5.81L14.7456 5.65C15.5096 5.235 16.3456 6.07 15.9296 6.835L15.7706 7.127C15.637 7.37243 15.56 7.64463 15.5453 7.92366C15.5306 8.20268 15.5785 8.48147 15.6855 8.73958C15.7925 8.9977 15.9559 9.2286 16.1637 9.41538C16.3715 9.60215 16.6185 9.74006 16.8866 9.819L17.2046 9.913C18.0396 10.159 18.0396 11.341 17.2046 11.587L16.8856 11.681C16.6175 11.76 16.3705 11.898 16.1627 12.0849C15.9548 12.2718 15.7915 12.5028 15.6846 12.7611C15.5777 13.0193 15.5299 13.2982 15.5448 13.5773C15.5596 13.8564 15.6368 14.1286 15.7706 14.374L15.9306 14.665C16.3456 15.429 15.5106 16.265 14.7456 15.849L14.4546 15.69C14.2091 15.5563 13.9368 15.4791 13.6576 15.4643C13.3785 15.4495 13.0996 15.4974 12.8413 15.6044C12.5831 15.7114 12.3521 15.8749 12.1652 16.0828C11.9784 16.2907 11.8405 16.5378 11.7616 16.806L11.6676 17.124C11.4216 17.959 10.2396 17.959 9.99355 17.124L9.89955 16.805C9.8205 16.5371 9.68251 16.2902 9.49569 16.0825C9.30886 15.8748 9.07795 15.7115 8.81984 15.6046C8.56174 15.4977 8.283 15.4499 8.00402 15.4646C7.72505 15.4794 7.45292 15.5564 7.20755 15.69L6.91555 15.85C6.15155 16.265 5.31555 15.43 5.73155 14.665L5.89055 14.374C6.02451 14.1286 6.10181 13.8562 6.11678 13.577C6.13176 13.2978 6.08403 13.0188 5.9771 12.7604C5.87017 12.5021 5.70675 12.2709 5.49883 12.084C5.29092 11.897 5.04378 11.759 4.77555 11.68L4.45655 11.586C3.62155 11.34 3.62155 10.158 4.45655 9.912L4.77555 9.818C5.04336 9.73891 5.29009 9.60094 5.4977 9.41419C5.7053 9.22744 5.86852 8.99663 5.97541 8.73866C6.0823 8.48068 6.13015 8.20207 6.11547 7.92322C6.10079 7.64437 6.02394 7.37232 5.89055 7.127L5.73055 6.835C5.31555 6.071 6.15055 5.235 6.91555 5.651L7.20755 5.81C7.45292 5.94358 7.72505 6.02057 8.00402 6.03535C8.283 6.05013 8.56174 6.00232 8.81984 5.89542C9.07795 5.78851 9.30886 5.62523 9.49569 5.41752C9.68251 5.20981 9.8205 4.96295 9.89955 4.695L9.99355 4.376Z" fill="#ABABAB"/>
</g>
<defs>
<clipPath id="clip0_16_70">
<rect width="16" height="16" fill="white" transform="translate(2.83057 2.75)"/>
</clipPath>
</defs>
</svg>
