<svg width="17" height="17" viewBox="0 0 17 17" fill="none" xmlns="http://www.w3.org/2000/svg">
<path fill-rule="evenodd" clip-rule="evenodd" d="M2.47654 4.97931C2.52299 4.93274 2.57817 4.8958 2.63891 4.87059C2.69966 4.84539 2.76478 4.83241 2.83054 4.83241C2.89631 4.83241 2.96143 4.84539 3.02218 4.87059C3.08292 4.8958 3.1381 4.93274 3.18454 4.97931L8.83054 10.6263L14.4765 4.97931C14.523 4.93282 14.5782 4.89594 14.639 4.87078C14.6997 4.84562 14.7648 4.83267 14.8305 4.83267C14.8963 4.83267 14.9614 4.84562 15.0221 4.87078C15.0829 4.89594 15.1381 4.93282 15.1845 4.97931C15.231 5.02579 15.2679 5.08098 15.2931 5.14172C15.3182 5.20246 15.3312 5.26756 15.3312 5.33331C15.3312 5.39905 15.3182 5.46415 15.2931 5.52489C15.2679 5.58563 15.231 5.64082 15.1845 5.68731L9.18454 11.6873C9.1381 11.7339 9.08292 11.7708 9.02218 11.796C8.96143 11.8212 8.89631 11.8342 8.83054 11.8342C8.76478 11.8342 8.69966 11.8212 8.63891 11.796C8.57817 11.7708 8.52299 11.7339 8.47654 11.6873L2.47654 5.68731C2.42998 5.64086 2.39304 5.58569 2.36783 5.52494C2.34263 5.46419 2.32965 5.39907 2.32965 5.33331C2.32965 5.26754 2.34263 5.20242 2.36783 5.14167C2.39304 5.08093 2.42998 5.02575 2.47654 4.97931Z" fill="#003CFF"/>
</svg>
