<svg width="21" height="21" viewBox="0 0 21 21" fill="none" xmlns="http://www.w3.org/2000/svg">
<path fill-rule="evenodd" clip-rule="evenodd" d="M13.7779 3.97932C13.8245 4.02577 13.8614 4.08094 13.8866 4.14169C13.9118 4.20243 13.9248 4.26755 13.9248 4.33332C13.9248 4.39909 13.9118 4.46421 13.8866 4.52496C13.8614 4.5857 13.8245 4.64088 13.7779 4.68732L8.13089 10.3333L13.7779 15.9793C13.8718 16.0732 13.9245 16.2005 13.9245 16.3333C13.9245 16.4661 13.8718 16.5934 13.7779 16.6873C13.684 16.7812 13.5567 16.834 13.4239 16.834C13.2911 16.834 13.1638 16.7812 13.0699 16.6873L7.06989 10.6873C7.02333 10.6409 6.98638 10.5857 6.96118 10.525C6.93597 10.4642 6.923 10.3991 6.923 10.3333C6.923 10.2676 6.93597 10.2024 6.96118 10.1417C6.98638 10.0809 7.02333 10.0258 7.06989 9.97932L13.0699 3.97932C13.1163 3.93276 13.1715 3.89582 13.2323 3.87061C13.293 3.8454 13.3581 3.83243 13.4239 3.83243C13.4897 3.83243 13.5548 3.8454 13.6155 3.87061C13.6763 3.89582 13.7314 3.93276 13.7779 3.97932Z" fill="#1D1929"/>
</svg>
