<svg width="23" height="22" viewBox="0 0 23 22" fill="none" xmlns="http://www.w3.org/2000/svg">
<rect x="0.744751" width="22" height="22" rx="7" fill="#ABABAB"/>
<path d="M8.03381 10.0059H8.71252C9.13896 9.99935 9.47424 9.88704 9.71838 9.66895C9.96252 9.45085 10.0846 9.15625 10.0846 8.78516C10.0846 7.95182 9.66956 7.53516 8.83948 7.53516C8.44885 7.53516 8.13635 7.64746 7.90198 7.87207C7.67086 8.09342 7.5553 8.38802 7.5553 8.75586H6.65198C6.65198 8.19271 6.85706 7.72559 7.26721 7.35449C7.68062 6.98014 8.20471 6.79297 8.83948 6.79297C9.51005 6.79297 10.0358 6.97038 10.4166 7.3252C10.7975 7.68001 10.9879 8.17318 10.9879 8.80469C10.9879 9.11393 10.887 9.41341 10.6852 9.70312C10.4866 9.99284 10.2148 10.2093 9.86975 10.3525C10.2604 10.4762 10.5615 10.6813 10.7731 10.9678C10.9879 11.2542 11.0953 11.6042 11.0953 12.0176C11.0953 12.6556 10.887 13.1618 10.4703 13.5361C10.0537 13.9105 9.51168 14.0977 8.84436 14.0977C8.17704 14.0977 7.63342 13.917 7.2135 13.5557C6.79683 13.1943 6.5885 12.7174 6.5885 12.125H7.4967C7.4967 12.4993 7.61877 12.7988 7.86292 13.0234C8.10706 13.248 8.4342 13.3604 8.84436 13.3604C9.28056 13.3604 9.61422 13.2464 9.84534 13.0186C10.0765 12.7907 10.192 12.4635 10.192 12.0371C10.192 11.6237 10.0651 11.3063 9.81116 11.085C9.55725 10.8636 9.19104 10.7497 8.71252 10.7432H8.03381V10.0059ZM16.6471 8.74609C16.6471 9.10091 16.5527 9.41667 16.3639 9.69336C16.1783 9.97005 15.9261 10.1865 15.6071 10.3428C15.9781 10.5023 16.2711 10.735 16.486 11.041C16.7041 11.347 16.8131 11.6937 16.8131 12.0811C16.8131 12.6963 16.6048 13.1862 16.1881 13.5508C15.7747 13.9154 15.2295 14.0977 14.5524 14.0977C13.8688 14.0977 13.3203 13.9154 12.9069 13.5508C12.4967 13.1829 12.2916 12.693 12.2916 12.0811C12.2916 11.6969 12.3958 11.3503 12.6041 11.041C12.8157 10.7318 13.1071 10.4974 13.4781 10.3379C13.1624 10.1816 12.9134 9.96517 12.7311 9.68848C12.5488 9.41178 12.4576 9.09766 12.4576 8.74609C12.4576 8.14714 12.6497 7.67188 13.0338 7.32031C13.4179 6.96875 13.9241 6.79297 14.5524 6.79297C15.1774 6.79297 15.6819 6.96875 16.066 7.32031C16.4534 7.67188 16.6471 8.14714 16.6471 8.74609ZM15.9098 12.0615C15.9098 11.6644 15.7828 11.3405 15.5289 11.0898C15.2783 10.8392 14.9495 10.7139 14.5426 10.7139C14.1357 10.7139 13.8086 10.8376 13.5612 11.085C13.317 11.3324 13.1949 11.6579 13.1949 12.0615C13.1949 12.4652 13.3138 12.7826 13.5514 13.0137C13.7923 13.2448 14.1259 13.3604 14.5524 13.3604C14.9755 13.3604 15.3076 13.2448 15.5485 13.0137C15.7893 12.7793 15.9098 12.4619 15.9098 12.0615ZM14.5524 7.53516C14.1976 7.53516 13.9095 7.64583 13.6881 7.86719C13.47 8.08529 13.361 8.38314 13.361 8.76074C13.361 9.12207 13.4684 9.41504 13.6832 9.63965C13.9013 9.861 14.191 9.97168 14.5524 9.97168C14.9137 9.97168 15.2018 9.861 15.4166 9.63965C15.6347 9.41504 15.7438 9.12207 15.7438 8.76074C15.7438 8.39941 15.6315 8.10482 15.4069 7.87695C15.1823 7.64909 14.8974 7.53516 14.5524 7.53516Z" fill="white"/>
</svg>
