<svg width="23" height="22" viewBox="0 0 23 22" fill="none" xmlns="http://www.w3.org/2000/svg">
<rect x="0.744751" width="22" height="22" rx="7" fill="#FF6F03"/>
<path d="M11.3785 14H6.72034V13.3506L9.18127 10.6162C9.54586 10.2028 9.79651 9.86751 9.93323 9.61035C10.0732 9.34993 10.1432 9.08138 10.1432 8.80469C10.1432 8.43359 10.0309 8.12923 9.80627 7.8916C9.58167 7.65397 9.28219 7.53516 8.90784 7.53516C8.45862 7.53516 8.10868 7.66374 7.85803 7.9209C7.61064 8.1748 7.48694 8.52962 7.48694 8.98535H6.58362C6.58362 8.33105 6.79358 7.80208 7.2135 7.39844C7.63668 6.99479 8.20146 6.79297 8.90784 6.79297C9.56864 6.79297 10.0911 6.96712 10.4752 7.31543C10.8593 7.66048 11.0514 8.12109 11.0514 8.69727C11.0514 9.39714 10.6054 10.2305 9.7135 11.1973L7.8092 13.2627H11.3785V14ZM16.7936 10.9678C16.7936 12.0257 16.6129 12.8118 16.2516 13.3262C15.8903 13.8405 15.3255 14.0977 14.5573 14.0977C13.7988 14.0977 13.2373 13.847 12.8727 13.3457C12.5081 12.8411 12.3193 12.0892 12.3063 11.0898V9.88379C12.3063 8.83887 12.4869 8.0625 12.8483 7.55469C13.2096 7.04688 13.776 6.79297 14.5475 6.79297C15.3125 6.79297 15.8756 7.03874 16.2369 7.53027C16.5983 8.01855 16.7838 8.77376 16.7936 9.7959V10.9678ZM15.8903 9.73242C15.8903 8.96745 15.7828 8.41081 15.568 8.0625C15.3531 7.71094 15.013 7.53516 14.5475 7.53516C14.0852 7.53516 13.7483 7.70931 13.5367 8.05762C13.3252 8.40592 13.2161 8.94141 13.2096 9.66406V11.1094C13.2096 11.8776 13.3203 12.4456 13.5416 12.8135C13.7662 13.1781 14.1048 13.3604 14.5573 13.3604C15.0032 13.3604 15.3336 13.1878 15.5485 12.8428C15.7666 12.4977 15.8805 11.9541 15.8903 11.2119V9.73242Z" fill="white"/>
</svg>
