<svg width="21" height="21" viewBox="0 0 21 21" fill="none" xmlns="http://www.w3.org/2000/svg">
<path fill-rule="evenodd" clip-rule="evenodd" d="M6.79742 3.97932C6.84387 3.93276 6.89904 3.89582 6.95979 3.87061C7.02053 3.8454 7.08565 3.83243 7.15142 3.83243C7.21719 3.83243 7.28231 3.8454 7.34306 3.87061C7.4038 3.89582 7.45898 3.93276 7.50542 3.97932L13.5054 9.97932C13.552 10.0258 13.5889 10.0809 13.6141 10.1417C13.6393 10.2024 13.6523 10.2676 13.6523 10.3333C13.6523 10.3991 13.6393 10.4642 13.6141 10.525C13.5889 10.5857 13.552 10.6409 13.5054 10.6873L7.50542 16.6873C7.41154 16.7812 7.2842 16.834 7.15142 16.834C7.01865 16.834 6.89131 16.7812 6.79742 16.6873C6.70353 16.5934 6.65079 16.4661 6.65079 16.3333C6.65079 16.2005 6.70353 16.0732 6.79742 15.9793L12.4444 10.3333L6.79742 4.68732C6.75086 4.64088 6.71392 4.5857 6.68871 4.52496C6.6635 4.46421 6.65053 4.39909 6.65053 4.33332C6.65053 4.26755 6.6635 4.20243 6.68871 4.14169C6.71392 4.08094 6.75086 4.02577 6.79742 3.97932Z" fill="#1D1929"/>
</svg>
